<svg xmlns="http://www.w3.org/2000/svg" width="459" height="80" viewBox="0 0 459 80" fill="none"><path fill-rule="evenodd" clip-rule="evenodd" d="M47.9166 17.4211H50.4984C52.5224 17.4211 53.9648 17.0898 54.7889 16.4805C55.6131 15.8391 56.0252 15.0588 56.0252 14.0861C56.0252 13.1455 55.6857 12.3545 54.9585 11.6918C54.2313 11.029 52.8982 10.6871 50.9105 10.6871H47.9166V17.4211ZM37.3601 4.60486H54.8132C58.631 4.60486 61.479 5.39585 63.3697 6.99922C65.2605 8.57052 66.2181 10.8794 66.2181 13.8189C66.2181 16.8439 65.1878 19.2169 63.1274 20.9058C61.067 22.6375 57.9038 23.4819 53.6497 23.4819H47.9166V34.5666H37.3722V4.60486H37.3601Z" fill="white"></path><path fill-rule="evenodd" clip-rule="evenodd" d="M84.3254 24.2411C83.0165 24.6366 81.6471 25 80.2411 25.3314C78.314 25.791 77.1141 26.2399 76.6051 26.6675C76.0839 27.1271 75.8171 27.6403 75.8171 28.2175C75.8171 28.8802 76.0961 29.4253 76.6051 29.8529C77.1263 30.2804 77.8776 30.4943 78.8714 30.4943C79.938 30.4943 80.8957 30.2484 81.8289 29.7995C82.7258 29.3399 83.3801 28.7947 83.7558 28.1319C84.1316 27.4906 84.3376 26.6461 84.3376 25.5879V24.2411H84.3254ZM76.1565 19.8692L67.115 19.0247C67.4543 17.6352 67.9391 16.5449 68.5936 15.7539C69.2481 14.9309 70.145 14.2682 71.3813 13.6589C72.2418 13.2313 73.4052 12.8999 74.9202 12.6861C76.4352 12.4403 78.0836 12.3228 79.8289 12.3228C82.6772 12.3228 84.9437 12.4723 86.6284 12.7502C88.3495 13.0281 89.7918 13.6267 90.919 14.5033C91.7432 15.1125 92.3611 15.9891 92.8095 17.1115C93.2943 18.2338 93.5368 19.324 93.5368 20.3502V29.9278C93.5368 30.9539 93.6094 31.777 93.7428 32.3542C93.8761 32.9314 94.2276 33.6582 94.7003 34.5668H85.8647C85.489 34.0217 85.2831 33.5942 85.1377 33.2949C85.0407 33.017 84.9316 32.568 84.8226 31.9266C83.5863 32.9849 82.35 33.7117 81.1501 34.1713C79.4654 34.7806 77.5383 35.0799 75.3082 35.0799C72.3872 35.0799 70.1571 34.4706 68.6421 33.2628C67.0907 32.0549 66.3394 30.5691 66.3394 28.8053C66.3394 27.1699 66.8847 25.8018 67.9876 24.7435C69.0905 23.6533 71.1146 22.8621 74.0719 22.3491C77.611 21.7077 79.9137 21.2908 80.9439 21.0129C82.0105 20.7671 83.1134 20.4358 84.3133 20.0403C84.3133 19.0141 84.0711 18.2873 83.5863 17.8918C83.1015 17.4642 82.2408 17.2504 81.0409 17.2504C79.4896 17.2504 78.3626 17.4963 77.5748 17.9132C77.0172 18.298 76.5322 18.9393 76.1565 19.8692Z" fill="white"></path><path fill-rule="evenodd" clip-rule="evenodd" d="M96.5304 12.8463H105.366V16.3951C106.227 14.8451 107.123 13.7869 108.008 13.2097C108.905 12.6325 110.032 12.3331 111.378 12.3331C112.747 12.3331 114.299 12.7287 115.947 13.4876L113.026 19.3988C111.887 19.0033 111.002 18.7894 110.384 18.7894C109.147 18.7894 108.154 19.2491 107.499 20.1577C106.505 21.4297 106.021 23.792 106.021 27.2767V34.5773H96.5426V12.8463H96.5304Z" fill="white"></path><path fill-rule="evenodd" clip-rule="evenodd" d="M142.223 34.5667H133.424V31.082C132.079 32.5037 130.782 33.5405 129.436 34.1391C128.091 34.7805 126.479 35.0798 124.528 35.0798C121.922 35.0798 119.886 34.385 118.407 33.0168C116.965 31.6486 116.213 29.5321 116.213 26.6888V12.8464H125.728V24.8182C125.728 26.1864 126.007 27.1484 126.552 27.7256C127.134 28.3028 127.921 28.6022 128.952 28.6022C130.091 28.6022 130.976 28.2066 131.703 27.4477C132.43 26.6567 132.769 25.2992 132.769 23.3217V12.8357H142.223V34.5667Z" fill="white"></path><path d="M155.01 4.60486H145.556V34.5666H155.01V4.60486Z" fill="white"></path><path fill-rule="evenodd" clip-rule="evenodd" d="M165.821 8.23924H167.639C168.536 8.23924 169.154 8.12169 169.457 7.87584C169.772 7.66206 169.942 7.33072 169.942 6.96729C169.942 6.72144 169.869 6.50766 169.7 6.30457C169.566 6.12285 169.324 5.97318 169.045 5.87698C168.766 5.78078 168.294 5.72731 167.53 5.72731H165.809V8.23924H165.821ZM164.282 12.8997H165.833V9.38305H166.73C167.251 9.35098 167.663 9.47913 167.93 9.66085C168.342 9.9067 168.863 10.5695 169.505 11.5956L170.366 12.8997H172.22L171.057 11.2642C170.511 10.5053 170.063 9.96025 169.687 9.62888C169.481 9.44717 169.202 9.29746 168.863 9.16919C169.687 9.13712 170.342 8.86994 170.827 8.4103C171.348 7.98274 171.578 7.43762 171.578 6.83903C171.578 6.41146 171.445 6.01596 171.13 5.63115C170.815 5.24634 170.439 4.98981 169.966 4.84016C169.445 4.69051 168.657 4.5942 167.566 4.5942H164.306V12.8997H164.282ZM168.124 2.21054C166.888 2.21054 165.724 2.48848 164.549 3.03363C163.385 3.57877 162.452 4.40183 161.797 5.42799C161.143 6.45414 160.84 7.52306 160.84 8.63473C160.84 9.7464 161.155 10.8153 161.797 11.8415C162.452 12.8463 163.349 13.6265 164.512 14.2037C165.651 14.781 166.888 15.0803 168.124 15.0803C169.396 15.0803 170.596 14.781 171.76 14.2037C172.923 13.6265 173.82 12.8356 174.475 11.8415C175.093 10.8153 175.432 9.7464 175.432 8.63473C175.432 7.52306 175.093 6.45414 174.438 5.42799C173.784 4.40183 172.863 3.57877 171.723 3.03363C170.56 2.47779 169.36 2.21054 168.124 2.21054ZM168.124 0.906494C169.603 0.906494 171.045 1.2378 172.414 1.91121C173.82 2.57394 174.923 3.54669 175.711 4.75456C176.463 5.99451 176.875 7.29859 176.875 8.63473C176.875 9.97088 176.463 11.2429 175.711 12.4828C174.96 13.6907 173.856 14.6634 172.487 15.3262C171.117 15.9889 169.639 16.3523 168.124 16.3523C166.609 16.3523 165.166 15.9889 163.797 15.3262C162.391 14.6634 161.324 13.6907 160.537 12.4828C159.785 11.2429 159.373 9.97088 159.373 8.63473C159.373 7.29859 159.785 5.99451 160.573 4.75456C161.361 3.54669 162.427 2.57394 163.833 1.91121C165.239 1.2378 166.645 0.906494 168.124 0.906494Z" fill="white"></path><path fill-rule="evenodd" clip-rule="evenodd" d="M173.141 79.4721L172.693 76.2653C173.554 76.447 174.305 76.5647 174.923 76.5647C175.82 76.5647 176.499 76.415 177.02 76.1692C177.541 75.9233 177.953 75.5599 178.292 75.1109C178.535 74.7796 178.947 73.903 179.492 72.5348C179.565 72.3531 179.662 72.0752 179.832 71.7117L171.105 51.3809H175.299L180.111 63.139C180.692 64.6248 181.274 66.1641 181.759 67.8316C182.207 66.2603 182.753 64.7104 183.371 63.1925L188.279 51.3702H192.158L183.431 72.0004C182.474 74.213 181.747 75.7629 181.238 76.6073C180.547 77.7297 179.759 78.5742 178.862 79.0873C177.929 79.6004 176.875 79.8783 175.638 79.8783C174.899 79.8996 174.063 79.75 173.141 79.4721ZM169.36 68.6012L169.942 71.6263C168.839 71.8401 167.845 71.9255 166.984 71.9255C165.578 71.9255 164.476 71.7438 163.688 71.3483C162.936 70.9528 162.379 70.4398 162.04 69.7771C161.724 69.1357 161.555 67.7781 161.555 65.7151V54.0532H158.707V51.3916H161.555V46.3571L165.433 44.294V51.3809H169.348V54.0425H165.433V65.9182C165.433 66.8909 165.506 67.5216 165.639 67.7995C165.773 68.0774 166.015 68.3125 166.33 68.4622C166.645 68.6439 167.081 68.7082 167.639 68.7082C168.087 68.7188 168.669 68.6867 169.36 68.6012ZM150.877 51.3809H154.792V71.6477H150.877V51.3809ZM150.877 43.6634H154.792V47.629H150.877V43.6634ZM127 65.6297L130.842 65.0845C131.085 66.4527 131.667 67.4788 132.66 68.2057C133.654 68.9325 135.036 69.296 136.818 69.296C138.599 69.296 139.945 68.9966 140.805 68.3232C141.666 67.6819 142.114 66.9337 142.114 66.0785C142.114 65.2875 141.702 64.689 140.95 64.2293C140.429 63.93 139.096 63.5346 136.963 63.0749C134.115 62.4336 132.115 61.8884 131.024 61.4074C129.921 60.9477 129.097 60.3172 128.515 59.4727C127.97 58.6496 127.655 57.741 127.655 56.779C127.655 55.8704 127.897 55.026 128.382 54.2671C128.831 53.4761 129.485 52.8454 130.273 52.3323C130.891 51.9368 131.715 51.6055 132.782 51.3276C133.812 51.0497 134.951 50.9321 136.151 50.9321C137.933 50.9321 139.521 51.1459 140.89 51.5948C142.26 52.0758 143.266 52.6851 143.908 53.4761C144.562 54.2671 145.011 55.2932 145.253 56.6294L141.435 57.0889C141.266 56.0307 140.745 55.2077 139.92 54.6305C139.096 54.0533 137.933 53.7539 136.418 53.7539C134.636 53.7539 133.363 54.0319 132.576 54.545C131.824 55.0581 131.436 55.6673 131.436 56.3621C131.436 56.8218 131.606 57.2066 131.921 57.57C132.236 57.9334 132.709 58.2327 133.4 58.5107C133.812 58.6282 134.951 58.9062 136.83 59.3551C139.617 60.0179 141.532 60.5416 142.599 60.9585C143.702 61.3861 144.562 61.9846 145.18 62.7756C145.798 63.5666 146.114 64.5286 146.114 65.7151C146.114 66.8696 145.738 67.9278 144.974 68.954C144.223 69.9588 143.12 70.739 141.714 71.2841C140.272 71.8293 138.66 72.1072 136.83 72.1072C133.836 72.1072 131.569 71.562 130.03 70.4718C128.443 69.3815 127.449 67.7782 127 65.6297ZM113.632 71.6582V51.3916H117.135V54.4487C118.031 53.0271 118.856 52.0865 119.607 51.6055C120.359 51.1459 121.183 50.9427 122.116 50.9427C123.425 50.9427 124.758 51.3061 126.103 52.033L124.758 55.2397C123.825 54.7266 122.867 54.4808 121.91 54.4808C121.049 54.4808 120.298 54.6946 119.607 55.1435C118.916 55.5925 118.444 56.2339 118.165 57.0569C117.716 58.2648 117.51 59.601 117.51 61.0547V71.6582H113.632ZM91.8159 59.5689H104.663C104.493 57.8693 103.972 56.5972 103.184 55.7528C101.948 54.4166 100.336 53.7539 98.3363 53.7539C96.5547 53.7539 95.0397 54.2992 93.8398 55.3253C92.6157 56.3835 91.9613 57.8052 91.8159 59.5689ZM104.602 65.1379L108.626 65.5655C108.008 67.6605 106.845 69.264 105.124 70.4184C103.403 71.5728 101.209 72.1179 98.5301 72.1179C95.1608 72.1179 92.5188 71.2093 90.5553 69.3921C88.5676 67.575 87.5617 64.999 87.5617 61.696C87.5617 58.3075 88.5919 55.6352 90.5553 53.7539C92.543 51.8726 95.1609 50.9321 98.3242 50.9321C101.415 50.9321 103.924 51.8406 105.851 53.6898C107.814 55.5391 108.772 58.1473 108.772 61.4823C108.772 61.6961 108.772 61.9954 108.772 62.4229H91.6339C91.7672 64.6356 92.4944 66.3671 93.767 67.5429C95.076 68.7294 96.6516 69.296 98.5787 69.296C99.9846 69.296 101.221 68.9647 102.215 68.2913C103.221 67.6606 104.021 66.5916 104.602 65.1379ZM72.9569 71.6582L64.1941 51.3916H68.3148L73.2599 63.5452C73.7811 64.8493 74.2537 66.2069 74.7385 67.6392C75.0779 66.5489 75.5626 65.2769 76.1808 63.7591L81.2954 51.3916H85.283L76.593 71.6582H72.9569ZM56.6069 51.3809H60.4853V71.6477H56.6069V51.3809ZM56.6069 43.6634H60.4853V47.629H56.6069V43.6634ZM31.7972 71.6582V51.3916H35.2997V54.2671C36.9844 52.0224 39.4206 50.9321 42.6203 50.9321C43.9899 50.9321 45.2624 51.1458 46.438 51.5734C47.6016 52.033 48.4623 52.5996 49.044 53.3264C49.6258 54.0212 50.0015 54.8763 50.2439 55.8384C50.3772 56.4797 50.4498 57.5914 50.4498 59.2055V71.6582H46.5715V59.323C46.5715 57.9335 46.438 56.8645 46.1229 56.1697C45.8078 55.5069 45.2626 54.9298 44.5111 54.5343C43.7233 54.1068 42.8264 53.8929 41.7962 53.8929C40.1115 53.8929 38.7055 54.3526 37.4693 55.2825C36.2694 56.2232 35.6877 57.9761 35.6877 60.5843V71.6477H31.7972V71.6582ZM20.9373 43.6634H25.1675V59.8468C25.1675 62.6687 24.7916 64.9028 24.0644 66.5382C23.3372 68.2057 22.0404 69.5418 20.1496 70.6C18.2589 71.6262 15.8229 72.15 12.7323 72.15C9.77499 72.15 7.33884 71.6904 5.4481 70.7818C3.55737 69.9053 2.22406 68.5691 1.39989 66.8695C0.612083 65.1379 0.200012 62.8077 0.200012 59.8361V43.6527H4.39352V59.8361C4.39352 62.2625 4.67216 64.0476 5.1812 65.2021C5.66601 66.3565 6.55095 67.233 7.7872 67.8637C9.05981 68.505 10.5749 68.8043 12.3929 68.8043C15.4835 68.8043 17.6893 68.1951 18.9861 66.9551C20.2951 65.7152 20.9494 63.3528 20.9494 59.8361V43.6634H20.9373Z" fill="white"></path><path d="M222.785 53.1446H231.851V37.966L244.396 53.1446H253.461V24.7862H244.396V39.9969L231.851 24.7862H222.785V53.1446ZM281.059 53.1446H291.3L278.962 24.7862H268.684L256.346 53.1446H266.588L268.236 49.3606H279.398L281.059 53.1446ZM270.781 43.4496L273.835 36.5764L276.829 43.4496H270.781ZM316.098 53.1446H326.376L314.013 24.7862H303.772L291.409 53.1446H301.651L303.299 49.3606H314.498L316.098 53.1446ZM305.856 43.4496L308.874 36.5764L311.892 43.4496H305.856ZM345.501 53.6576C350.652 53.6576 355.331 51.7229 358.555 48.6017L351.889 43.4815C350.337 45.2346 348.071 46.3891 345.501 46.3891C341.102 46.3891 337.357 43.0006 337.357 38.9707C337.357 34.9409 341.102 31.5738 345.501 31.5738C348.01 31.5738 350.349 32.7283 351.852 34.4493L358.555 29.297C355.331 26.2399 350.652 24.2946 345.501 24.2946C335.987 24.2946 327.976 30.9859 327.976 38.96C327.988 46.9021 335.987 53.6576 345.501 53.6576Z" fill="white"></path><path fill-rule="evenodd" clip-rule="evenodd" d="M391.194 17.1433C404.005 17.1433 414.659 25.171 417.058 35.8067H411.083V42.9255H417.434C415.992 54.5874 404.793 63.6839 391.182 63.6839C376.614 63.6839 364.797 53.262 364.797 40.4136C364.797 27.5653 376.638 17.1433 391.194 17.1433ZM399.242 53.1444H409.483L397.145 24.7861H386.867L374.529 53.1444H384.771L386.419 49.3604H397.581L399.242 53.1444ZM389 43.4494L392.018 36.5763L395.012 43.4494H389Z" fill="#E5334B"></path><path d="M434.935 36.929H426.621V29.4147H420.706V36.929H412.332V41.8462H420.706V49.3605H426.621V41.8462H434.935V36.929Z" fill="white"></path><path d="M458.4 36.929H450.049V29.4147H444.171V36.929H435.796V41.8462H444.171V49.3605H450.049V41.8462H458.4V36.929Z" fill="white"></path><path d="M207.466 0.906494V79.8994" stroke="white" stroke-width="0.95966" stroke-miterlimit="10"></path><path fill-rule="evenodd" clip-rule="evenodd" d="M392.018 36.5656L395.012 43.4388H389L392.018 36.5656ZM386.867 24.7861L374.529 53.1445H384.77L386.419 49.3605H397.581L399.23 53.1445H409.471L397.133 24.7861H386.867Z" fill="#FEFAFB"></path></svg>